<?xml version="1.0" encoding="utf-8"?>
<!-- Generator: Adobe Illustrator 25.0.1, SVG Export Plug-In . SVG Version: 6.00 Build 0)  -->
<svg version="1.1" id="Layer_1" xmlns="http://www.w3.org/2000/svg" xmlns:xlink="http://www.w3.org/1999/xlink" x="0px" y="0px"
	 viewBox="0 0 103.84 108.06" style="enable-background:new 0 0 103.84 108.06;" xml:space="preserve">
<style type="text/css">
	.st0{fill:#A7A9AC;}
	.st1{fill:#B699C8;}
	.st2{fill:url(#SVGID_1_);}
	.st3{fill:url(#SVGID_2_);}
	.st4{fill:url(#SVGID_3_);}
	.st5{fill:url(#SVGID_4_);}
	.st6{fill:url(#SVGID_5_);}
	.st7{fill:#FFFFFF;}
	.st8{fill:url(#SVGID_6_);}
</style>
<g>
	<g>
		<linearGradient id="SVGID_1_" gradientUnits="userSpaceOnUse" x1="0" y1="94.6705" x2="94.6973" y2="94.6705">
			<stop  offset="0" style="stop-color:#DADBDC"/>
			<stop  offset="0.331" style="stop-color:#DADBDC"/>
			<stop  offset="0.6941" style="stop-color:#E6E7E8"/>
			<stop  offset="1" style="stop-color:#E6E7E8"/>
		</linearGradient>
		<path class="st2" d="M81.08,87.48l-4.89-6.21l-64.58,1.87L0,83.48l12.6,18.89c1.61,3.36,5.04,5.69,9.01,5.69h72.23
			c0.29,0,0.57-0.02,0.86-0.04c-0.38-0.52-0.74-1.06-1.02-1.65L81.08,87.48z"/>
	</g>
	<linearGradient id="SVGID_2_" gradientUnits="userSpaceOnUse" x1="86.0817" y1="95.003" x2="96.2483" y2="88.0029">
		<stop  offset="0" style="stop-color:#E6E7E8"/>
		<stop  offset="0.8035" style="stop-color:#A7A9AC"/>
	</linearGradient>
	<path class="st3" d="M103.84,98.06l-13.33-17.2l-14.32,0.41l4.89,6.21l12.6,18.89c0.28,0.59,0.64,1.13,1.02,1.65
		C99.82,107.59,103.84,103.3,103.84,98.06z"/>
	<polyline class="st0" points="88.71,0 89.09,2.1 89.09,79.11 103.79,99.07 102.62,21.11 89.66,1.25 	"/>
</g>
</svg>
